# xmcd
#
# Track frame offsets: 
#        150
#        20566
#        33377
#        45491
#        61688
#        82011
#        99407
#        112445
#        138351
#        147262
#        164128
#        178483
#        199025
#        213989
#        226647
#        245503
#
# Disc length: 3468 seconds
#
# Revision: 0
# Processed by: cddbd v1.5.1PL2 Copyright (c) Steve Scherf et al.
# Submitted via: ExactAudioCopy v0.95b3
#
DISCID=e60d8a10
DTITLE=Prickly Pair - The Cowgirl and the Celt
DYEAR=2002
DGENRE=Country
TTITLE0=01 Wearin O' the Green-The Campbells are Coming-The Rising of 
TTITLE0=the Moon
TTITLE1=02 The Sad Irish Cowgirl
TTITLE2=03 Range of the Buffalo-Gary Owen
TTITLE3=04 Denbrae
TTITLE4=05 He Was a Fiddler-Swedish Jig
TTITLE5=06 Small Victory
TTITLE6=07 The Cowgirl and the Celt
TTITLE7=08 Danny Boy
TTITLE8=09 Unfortunate Rake-St Paddy's Day in the Mornin'-Father O'Fly
TTITLE8=nn
TTITLE9=10 Billy Gray
TTITLE10=11 Jack Haggerty
TTITLE11=12 When I Was on Horseback-Streets of Laredo
TTITLE12=13 St. Ann's Reel-Soldier's Joy-Liberty
TTITLE13=14 Give Me Wings
TTITLE14=15 An Old Puncher's Prayer
TTITLE15=16 Auld Lang Syne
EXTD=
EXTT0=
EXTT1=
EXTT2=
EXTT3=
EXTT4=
EXTT5=
EXTT6=
EXTT7=
EXTT8=
EXTT9=
EXTT10=
EXTT11=
EXTT12=
EXTT13=
EXTT14=
EXTT15=
PLAYORDER=
